<?xml version="1.0" encoding="iso-8859-1"?>
<!-- Generator: Adobe Illustrator 19.0.0, SVG Export Plug-In . SVG Version: 6.00 Build 0)  -->
<svg version="1.1" id="Layer_1" xmlns="http://www.w3.org/2000/svg" xmlns:xlink="http://www.w3.org/1999/xlink" x="0px" y="0px"
	 viewBox="0 0 512 512" style="enable-background:new 0 0 512 512;" xml:space="preserve">
<polygon style="fill:#F1F1F2;" points="7.38,187.878 127.225,94.462 385.353,94.462 504.62,187.878 504.62,483.316 7.38,483.316 "/>
<polygon style="fill:#DCDBDE;" points="256.001,94.462 385.353,94.462 504.62,187.878 504.62,483.316 256.001,483.316 "/>
<path style="fill:#F4DA49;" d="M256.289,0c-34.043,0-63.091,21.317-74.572,51.323h-49.593v319.342h49.593
	c11.481,30.007,40.529,51.323,74.572,51.323s63.091-21.317,74.572-51.323h49.594V51.323h-49.594C319.381,21.317,290.333,0,256.289,0
	z"/>
<path style="fill:#E69824;" d="M256.289,0c0,38.694,0,361.17,0,421.988c34.043,0,63.091-21.317,74.572-51.323h49.594V51.323h-49.594
	C319.381,21.317,290.333,0,256.289,0z"/>
<circle style="fill:#F1F1F2;" cx="210.531" cy="258.53" r="25.148"/>
<circle style="fill:#DCDBDE;" cx="302.28" cy="163.458" r="25.148"/>
<rect x="241.562" y="117.265" transform="matrix(-0.6281 0.7781 -0.7781 -0.6281 581.4468 144.1276)" style="fill:#F1F1F2;" width="29.44" height="187.487"/>
<polygon style="fill:#DCDBDE;" points="338.482,258.421 319.99,281.33 256.001,229.678 256.289,192.076 "/>
<polygon style="fill:#BABABE;" points="256.289,408.42 7.38,187.878 7.38,512 504.62,512 504.62,187.878 "/>
<polygon style="fill:#807F83;" points="256.289,408.42 256.289,512 504.62,512 504.62,187.878 "/>
<polygon style="fill:#DCDBDE;" points="7.38,187.878 7.38,512 198.58,357.158 "/>
<polygon style="fill:#CBCBCE;" points="504.62,187.878 504.62,512 313.998,357.158 "/>
<g>
</g>
<g>
</g>
<g>
</g>
<g>
</g>
<g>
</g>
<g>
</g>
<g>
</g>
<g>
</g>
<g>
</g>
<g>
</g>
<g>
</g>
<g>
</g>
<g>
</g>
<g>
</g>
<g>
</g>
</svg>
