<?xml version="1.0" encoding="iso-8859-1"?>
<!-- Generator: Adobe Illustrator 19.0.0, SVG Export Plug-In . SVG Version: 6.00 Build 0)  -->
<svg version="1.1" id="Layer_1" xmlns="http://www.w3.org/2000/svg" xmlns:xlink="http://www.w3.org/1999/xlink" x="0px" y="0px"
	 viewBox="0 0 503.607 503.607" style="enable-background:new 0 0 503.607 503.607;" xml:space="preserve">
<g>
	<g>
		<path d="M386.098,58.754h-41.967v-8.393c0-9.233-7.554-16.787-16.787-16.787h-25.18V25.18c0-13.43-10.911-25.18-25.18-25.18
			h-50.361c-14.269,0-25.18,10.911-25.18,25.18v8.393h-25.18c-9.233,0-16.787,7.554-16.787,16.787v8.393h-41.967
			c-23.502,0-41.967,18.466-41.967,41.967v360.918c0,23.502,18.466,41.967,41.967,41.967h268.59
			c23.502,0,41.967-18.466,41.967-41.967V100.721C428.066,78.059,409.6,58.754,386.098,58.754z M176.262,67.148V50.361h33.574
			c5.036,0,8.393-3.357,8.393-8.393V25.18c0-5.036,3.357-8.393,8.393-8.393h50.361c5.036,0,8.393,3.357,8.393,8.393v16.787
			c0,5.036,3.357,8.393,8.393,8.393h33.574v58.754H176.262V67.148z M344.131,428.066H159.475c-5.036,0-8.393-3.357-8.393-8.393
			s3.357-8.393,8.393-8.393h184.656c5.036,0,8.393,3.357,8.393,8.393S349.167,428.066,344.131,428.066z M344.131,352.525H159.475
			c-5.036,0-8.393-3.357-8.393-8.393c0-5.036,3.357-8.393,8.393-8.393h184.656c5.036,0,8.393,3.357,8.393,8.393
			C352.525,349.167,349.167,352.525,344.131,352.525z M344.131,276.984H159.475c-5.036,0-8.393-3.357-8.393-8.393
			s3.357-8.393,8.393-8.393h184.656c5.036,0,8.393,3.357,8.393,8.393S349.167,276.984,344.131,276.984z M344.131,201.443H159.475
			c-5.036,0-8.393-3.357-8.393-8.393s3.357-8.393,8.393-8.393h184.656c5.036,0,8.393,3.357,8.393,8.393
			S349.167,201.443,344.131,201.443z"/>
	</g>
</g>
<g>
</g>
<g>
</g>
<g>
</g>
<g>
</g>
<g>
</g>
<g>
</g>
<g>
</g>
<g>
</g>
<g>
</g>
<g>
</g>
<g>
</g>
<g>
</g>
<g>
</g>
<g>
</g>
<g>
</g>
</svg>
