<?xml version="1.0" encoding="iso-8859-1"?>
<!-- Generator: Adobe Illustrator 19.0.0, SVG Export Plug-In . SVG Version: 6.00 Build 0)  -->
<svg version="1.1" id="Layer_1" xmlns="http://www.w3.org/2000/svg" xmlns:xlink="http://www.w3.org/1999/xlink" x="0px" y="0px"
	 viewBox="0 0 512 512" style="enable-background:new 0 0 512 512;" xml:space="preserve">
<path style="fill:#F4DA49;" d="M512,256.001c0-41.305-25.864-76.55-62.27-90.479v-60.172H62.27v60.172
	C25.864,179.451,0,214.695,0,256.001s25.864,76.55,62.27,90.478v60.172H449.73v-60.172C486.136,332.55,512,297.306,512,256.001z"/>
<path style="fill:#E69824;" d="M512,256.001c0-41.305-25.864-76.55-62.27-90.479v-60.172H256v301.302h193.73v-60.172
	C486.136,332.55,512,297.306,512,256.001z"/>
<circle style="fill:#F1F1F2;" cx="198.322" cy="200.482" r="30.512"/>
<circle style="fill:#DCDBDE;" cx="313.678" cy="311.797" r="30.512"/>
<rect x="238.126" y="142.254" transform="matrix(-0.7781 -0.6281 0.6281 -0.7781 294.3781 615.9734)" style="fill:#F1F1F2;" width="35.717" height="227.478"/>
<polygon style="fill:#DCDBDE;" points="313.544,156.276 256,227.566 256,284.435 341.339,178.712 "/>
<g>
</g>
<g>
</g>
<g>
</g>
<g>
</g>
<g>
</g>
<g>
</g>
<g>
</g>
<g>
</g>
<g>
</g>
<g>
</g>
<g>
</g>
<g>
</g>
<g>
</g>
<g>
</g>
<g>
</g>
</svg>
