<?xml version="1.0" encoding="iso-8859-1"?>
<!-- Generator: Adobe Illustrator 19.0.0, SVG Export Plug-In . SVG Version: 6.00 Build 0)  -->
<svg version="1.1" id="Layer_1" xmlns="http://www.w3.org/2000/svg" xmlns:xlink="http://www.w3.org/1999/xlink" x="0px" y="0px"
	 viewBox="0 0 512 512" style="enable-background:new 0 0 512 512;" xml:space="preserve">
<path style="fill:#F4DA49;" d="M366.052,167.31h-33.391v-57.258c0-42.271-34.39-76.661-76.661-76.661s-76.661,34.39-76.661,76.661
	v57.258h-33.391v-57.258C145.948,49.369,195.317,0,256,0s110.052,49.369,110.052,110.052V167.31z"/>
<path style="fill:#E69824;" d="M366.052,167.31h-33.391v-57.258c0-42.271-34.39-76.661-76.661-76.661V0
	c60.683,0,110.052,49.369,110.052,110.052V167.31z"/>
<path style="fill:#F1F1F2;" d="M454.935,512H57.065l36.151-362.007h325.571L454.935,512z"/>
<path style="fill:#DCDBDE;" d="M454.935,512H256V149.993h162.786L454.935,512z"/>
<circle style="fill:#79D5DE;" cx="198.322" cy="283.403" r="30.512"/>
<circle style="fill:#3D6C6F;" cx="313.678" cy="394.707" r="30.512"/>
<rect x="238.122" y="225.167" transform="matrix(-0.7781 -0.6281 0.6281 -0.7781 242.2918 763.4019)" style="fill:#79D5DE;" width="35.717" height="227.478"/>
<polygon style="fill:#3D6C6F;" points="313.544,239.195 256,310.485 256,367.356 341.34,261.632 "/>
<g>
</g>
<g>
</g>
<g>
</g>
<g>
</g>
<g>
</g>
<g>
</g>
<g>
</g>
<g>
</g>
<g>
</g>
<g>
</g>
<g>
</g>
<g>
</g>
<g>
</g>
<g>
</g>
<g>
</g>
</svg>
