<?xml version="1.0" encoding="iso-8859-1"?>
<!-- Generator: Adobe Illustrator 19.0.0, SVG Export Plug-In . SVG Version: 6.00 Build 0)  -->
<svg version="1.1" id="Layer_1" xmlns="http://www.w3.org/2000/svg" xmlns:xlink="http://www.w3.org/1999/xlink" x="0px" y="0px"
	 viewBox="0 0 512.003 512.003" style="enable-background:new 0 0 512.003 512.003;" xml:space="preserve">
<rect x="23.922" y="103.775" transform="matrix(-0.4702 0.8826 -0.8826 -0.4702 483.7498 125.7709)" style="fill:#A7DC5E;" width="360.404" height="208.621"/>
<path style="fill:#FFFFFF;" d="M213.984,354.978c-13.356-7.114-29.949-2.055-37.064,11.3l-88.138-46.952
	c7.114-13.356,2.055-29.949-11.3-37.064l117.72-220.984c13.356,7.114,29.949,2.055,37.064-11.3l88.14,46.952
	c-7.114,13.356-2.055,29.949,11.3,37.064L213.984,354.978z"/>
<path style="fill:#F1F1F2;" d="M272.758,244.646c-13.356-7.114-123.147-65.602-136.503-72.716l58.946-110.653
	c13.356,7.114,29.949,2.055,37.064-11.3l88.14,46.952c-7.114,13.356-2.055,29.949,11.3,37.064L272.758,244.646z"/>
<ellipse transform="matrix(-0.8826 -0.4702 0.4702 -0.8826 286.4398 487.7276)" style="fill:#A7DC5E;" cx="204.126" cy="208.094" rx="64.08" ry="53.835"/>
<path style="fill:#6BAC2E;" d="M229.427,160.565c31.236,16.639,45.224,51.402,31.245,77.643
	c-22.787-12.139-95.46-50.852-113.113-60.256C161.538,151.71,198.192,143.925,229.427,160.565z"/>
<path style="fill:#FFFFFF;" d="M184.28,227.886c-9.889-8.635-14.987-23.39-7.323-37.776c5.334-10.014,14.491-15.136,23.708-14.817
	l1.659,13.74c-7.189-0.871-11.732,3.444-13.933,7.577c-3.472,6.517-1.302,12.979,3.128,17.685l9.611-18.042l5.353,6.423
	l-8.722,16.372c1.51,0.804,2.745,1.36,3.942,1.794l8.806-16.532l5.353,6.423l-6.012,11.286c5.324-0.225,10.058-2.601,12.641-7.449
	c2.287-4.292,2.892-10.601-1.65-15.674l11.995-7.385c6.567,7.784,5.831,20.656,1.09,29.558
	c-6.224,11.683-19.237,16.383-31.485,14.858l-4.318,8.106l-5.353-6.423l1.863-3.497c-1.356-0.518-2.671-1.116-3.942-1.794
	l-2.921,5.485l-5.353-6.423L184.28,227.886z"/>
<rect x="99.096" y="120.094" transform="matrix(-0.6354 0.7722 -0.7722 -0.6354 630.0366 151.3177)" style="fill:#6BAC2E;" width="360.396" height="208.617"/>
<path style="fill:#FFFFFF;" d="M259.905,370.364c-11.684-9.615-28.951-7.939-38.567,3.746l-77.111-63.458
	c9.615-11.684,7.939-28.951-3.746-38.567L299.585,78.75c11.684,9.615,28.951,7.939,38.567-3.746l77.111,63.457
	c-9.615,11.684-7.939,28.951,3.746,38.567L259.905,370.364z"/>
<path style="fill:#F1F1F2;" d="M339.341,273.837c-11.684-9.615-107.739-88.664-119.423-98.279l79.668-96.808
	c11.684,9.615,28.951,7.939,38.567-3.746l77.111,63.457c-9.615,11.684-7.939,28.951,3.746,38.567L339.341,273.837z"/>
<ellipse transform="matrix(-0.7722 -0.6354 0.6354 -0.7722 352.3732 575.1354)" style="fill:#A7DC5E;" cx="279.29" cy="224.399" rx="64.079" ry="53.834"/>
<path style="fill:#6BAC2E;" d="M313.496,182.845c27.327,22.489,34.164,59.331,15.271,82.29
	c-19.936-16.406-83.517-68.729-98.961-81.438C248.7,160.737,286.17,160.356,313.496,182.845z"/>
<path style="fill:#FFFFFF;" d="M255.925,239.907c-7.985-10.42-10.065-25.892,0.293-38.478c7.21-8.762,17.199-11.97,26.17-9.835
	l-1.091,13.797c-6.875-2.275-12.181,1.055-15.157,4.671c-4.692,5.702-3.843,12.465-0.431,17.956l12.99-15.784l3.977,7.355
	l-11.788,14.324c1.321,1.087,2.422,1.876,3.509,2.538l11.902-14.463l3.977,7.354l-8.125,9.874c5.263,0.832,10.374-0.56,13.865-4.801
	c3.09-3.755,4.932-9.819,1.483-15.69l13.218-4.866c4.898,8.928,1.631,21.402-4.778,29.189c-8.411,10.222-22.097,12.254-33.802,8.337
	l-5.836,7.092l-3.977-7.354l2.518-3.06c-1.227-0.777-2.397-1.623-3.509-2.538l-3.948,4.798l-3.977-7.355L255.925,239.907z"/>
<path style="fill:#B90B27;" d="M471.567,392.686v67.899c0,28.397-23.021,51.418-51.418,51.418H59.926
	c-28.397,0-51.418-23.021-51.418-51.418V207.578c0-28.397,23.021-51.418,51.418-51.418h360.223
	c28.397,0,51.418,23.021,51.418,51.418v89.69L471.567,392.686L471.567,392.686z"/>
<path style="fill:#8A091F;" d="M471.567,392.686v67.899c0,28.397-23.021,51.418-51.418,51.418H240.038c0-51.839,0-292.362,0-355.843
	H420.15c28.397,0,51.418,23.021,51.418,51.418v89.69v95.417H471.567z"/>
<path style="fill:#B90B27;" d="M477.72,392.686H362.339c-14.236,0-25.776-11.541-25.776-25.775v-43.866
	c0-14.236,11.541-25.776,25.776-25.776H477.72c14.236,0,25.776,11.541,25.776,25.776v43.866
	C503.496,381.145,491.956,392.686,477.72,392.686z"/>
<circle style="fill:#D7F6F8;" cx="387.915" cy="344.979" r="23.284"/>
<rect x="8.509" y="207.999" style="fill:#8A091F;" width="17.463" height="11.642"/>
<g>
	<rect x="388.241" y="207.999" style="fill:#66071C;" width="32.935" height="11.642"/>
	<rect x="322.371" y="207.999" style="fill:#66071C;" width="32.935" height="11.642"/>
	<rect x="256.5" y="207.999" style="fill:#66071C;" width="32.935" height="11.642"/>
</g>
<g>
	<rect x="190.641" y="207.999" style="fill:#8A091F;" width="32.935" height="11.642"/>
	<rect x="124.77" y="207.999" style="fill:#8A091F;" width="32.935" height="11.642"/>
	<rect x="58.905" y="207.999" style="fill:#8A091F;" width="32.935" height="11.642"/>
</g>
<rect x="454.1" y="207.999" style="fill:#66071C;" width="17.463" height="11.642"/>
<rect x="8.509" y="448.524" style="fill:#8A091F;" width="17.463" height="11.642"/>
<g>
	<rect x="388.241" y="448.524" style="fill:#66071C;" width="32.935" height="11.642"/>
	<rect x="322.371" y="448.524" style="fill:#66071C;" width="32.935" height="11.642"/>
	<rect x="256.5" y="448.524" style="fill:#66071C;" width="32.935" height="11.642"/>
</g>
<g>
	<rect x="190.641" y="448.524" style="fill:#8A091F;" width="32.935" height="11.642"/>
	<rect x="124.77" y="448.524" style="fill:#8A091F;" width="32.935" height="11.642"/>
	<rect x="58.905" y="448.524" style="fill:#8A091F;" width="32.935" height="11.642"/>
</g>
<rect x="454.1" y="448.524" style="fill:#66071C;" width="17.463" height="11.642"/>
<g>
</g>
<g>
</g>
<g>
</g>
<g>
</g>
<g>
</g>
<g>
</g>
<g>
</g>
<g>
</g>
<g>
</g>
<g>
</g>
<g>
</g>
<g>
</g>
<g>
</g>
<g>
</g>
<g>
</g>
</svg>
